<svg id="calendar" xmlns="http://www.w3.org/2000/svg" width="28.068" height="28.068" viewBox="0 0 28.068 28.068">
  <g id="Group_13" data-name="Group 13" transform="translate(0)">
    <g id="Group_12" data-name="Group 12">
      <path id="Path_12" data-name="Path 12" d="M24.779,2.193H23.463V0H21.27V2.193H6.8V0H4.6V2.193H3.289A3.293,3.293,0,0,0,0,5.482v19.3a3.293,3.293,0,0,0,3.289,3.289h21.49a3.293,3.293,0,0,0,3.289-3.289V5.482A3.293,3.293,0,0,0,24.779,2.193Zm1.1,22.586a1.1,1.1,0,0,1-1.1,1.1H3.289a1.1,1.1,0,0,1-1.1-1.1V10.306H25.875Zm0-16.665H2.193V5.482a1.1,1.1,0,0,1,1.1-1.1H4.6V6.578H6.8V4.386H21.27V6.578h2.193V4.386h1.316a1.1,1.1,0,0,1,1.1,1.1Z" transform="translate(0)" fill="#fff"/>
    </g>
  </g>
  <g id="Group_15" data-name="Group 15" transform="translate(4.294 12.576)">
    <g id="Group_14" data-name="Group 14">
      <rect id="Rectangle_1" data-name="Rectangle 1" width="2.26" height="2.26" fill="#fff"/>
    </g>
  </g>
  <g id="Group_17" data-name="Group 17" transform="translate(8.53 12.576)">
    <g id="Group_16" data-name="Group 16">
      <rect id="Rectangle_2" data-name="Rectangle 2" width="2.26" height="2.26" fill="#fff"/>
    </g>
  </g>
  <g id="Group_19" data-name="Group 19" transform="translate(12.904 12.576)">
    <g id="Group_18" data-name="Group 18">
      <rect id="Rectangle_3" data-name="Rectangle 3" width="2.26" height="2.26" fill="#fff"/>
    </g>
  </g>
  <g id="Group_21" data-name="Group 21" transform="translate(17.278 12.576)">
    <g id="Group_20" data-name="Group 20">
      <rect id="Rectangle_4" data-name="Rectangle 4" width="2.26" height="2.26" fill="#fff"/>
    </g>
  </g>
  <g id="Group_23" data-name="Group 23" transform="translate(21.514 12.576)">
    <g id="Group_22" data-name="Group 22">
      <rect id="Rectangle_5" data-name="Rectangle 5" width="2.26" height="2.26" fill="#fff"/>
    </g>
  </g>
  <g id="Group_25" data-name="Group 25" transform="translate(4.294 16.95)">
    <g id="Group_24" data-name="Group 24">
      <rect id="Rectangle_6" data-name="Rectangle 6" width="2.26" height="2.26" fill="#fff"/>
    </g>
  </g>
  <g id="Group_27" data-name="Group 27" transform="translate(8.53 16.95)">
    <g id="Group_26" data-name="Group 26">
      <rect id="Rectangle_7" data-name="Rectangle 7" width="2.26" height="2.26" fill="#fff"/>
    </g>
  </g>
  <g id="Group_29" data-name="Group 29" transform="translate(12.904 16.95)">
    <g id="Group_28" data-name="Group 28">
      <rect id="Rectangle_8" data-name="Rectangle 8" width="2.26" height="2.26" fill="#fff"/>
    </g>
  </g>
  <g id="Group_31" data-name="Group 31" transform="translate(17.278 16.95)">
    <g id="Group_30" data-name="Group 30">
      <rect id="Rectangle_9" data-name="Rectangle 9" width="2.26" height="2.26" fill="#fff"/>
    </g>
  </g>
  <g id="Group_33" data-name="Group 33" transform="translate(4.294 21.324)">
    <g id="Group_32" data-name="Group 32">
      <rect id="Rectangle_10" data-name="Rectangle 10" width="2.26" height="2.26" fill="#fff"/>
    </g>
  </g>
  <g id="Group_35" data-name="Group 35" transform="translate(8.53 21.324)">
    <g id="Group_34" data-name="Group 34">
      <rect id="Rectangle_11" data-name="Rectangle 11" width="2.26" height="2.26" fill="#fff"/>
    </g>
  </g>
  <g id="Group_37" data-name="Group 37" transform="translate(12.904 21.324)">
    <g id="Group_36" data-name="Group 36">
      <rect id="Rectangle_12" data-name="Rectangle 12" width="2.26" height="2.26" fill="#fff"/>
    </g>
  </g>
  <g id="Group_39" data-name="Group 39" transform="translate(17.278 21.324)">
    <g id="Group_38" data-name="Group 38">
      <rect id="Rectangle_13" data-name="Rectangle 13" width="2.26" height="2.26" fill="#fff"/>
    </g>
  </g>
  <g id="Group_41" data-name="Group 41" transform="translate(21.514 16.95)">
    <g id="Group_40" data-name="Group 40">
      <rect id="Rectangle_14" data-name="Rectangle 14" width="2.26" height="2.26" fill="#fff"/>
    </g>
  </g>
</svg>
