<svg xmlns="http://www.w3.org/2000/svg" width="44.783" height="25.958" viewBox="0 0 44.783 25.958">
  <g id="students-cap" transform="translate(0 -166.422)">
    <path id="Path_13" data-name="Path 13" d="M173.06,406.428,159.7,402.316v6.867c0,3.175,5.983,5.749,13.363,5.749s13.364-2.574,13.364-5.749c0-.025-.008-.05-.009-.075v-6.793Z" transform="translate(-150.669 -222.552)" fill="#fff"/>
    <path id="Path_14" data-name="Path 14" d="M0,175.037l4.773,1.707.407-.871,1.753-.149.25.26-1.5.357-.219.649s-3.4,7.1-2.9,10.579a4.383,4.383,0,0,0,4.241,0l.563-9.5v-.791l3.156-.712-.223.549-2.353.765,1.088.389,13.359,4.112,13.359-4.112,9.032-3.23-22.392-8.615Z" fill="#fff"/>
  </g>
</svg>
