<svg xmlns="http://www.w3.org/2000/svg" width="131" height="43" viewBox="0 0 131 43">
  <g id="title" transform="translate(0 0)">
    <text id="SNAR" transform="translate(0 34)" fill="#1c1c1c" font-size="36" font-family="Roboto-Black, Roboto" font-weight="800"><tspan x="0" y="0">S</tspan></text>
    <text id="NAR" transform="translate(57 34)" fill="#1c1c1c" font-size="36" font-family="Roboto-Black, Roboto" font-weight="800"><tspan x="0" y="0">NAR</tspan></text>
    <path id="path" d="M3.753,0A20.188,20.188,0,0,1,18.11,5.89,19.167,19.167,0,0,1,24,20.247H20.319a16.56,16.56,0,0,0-4.786-11.78A15.828,15.828,0,0,0,3.753,3.681ZM1.682,9.433a13.256,13.256,0,0,1,9.2,3.681,11.973,11.973,0,0,1,3.865,9.019H11.07a8.355,8.355,0,0,0-2.761-6.442A9.735,9.735,0,0,0,1.866,12.93v-3.5ZM0,18.478a5.3,5.3,0,0,1,3.865,1.657A5.3,5.3,0,0,1,5.522,24H0Z" transform="translate(23 16.971) rotate(-45)" fill="#1c1c1c"/>
  </g>
</svg>
