<svg id="onedrive" xmlns="http://www.w3.org/2000/svg" width="35" height="22" viewBox="0 0 35 22">
  <g id="Group_2" data-name="Group 2" transform="translate(0 0)">
    <g id="Group_1" data-name="Group 1">
      <path id="Path_2" data-name="Path 2" d="M19.1,85.5a8.891,8.891,0,0,0-1.476.123,8.384,8.384,0,0,0-4.452,2.224,7.547,7.547,0,0,0-1.356-.123,6.879,6.879,0,0,0-6.956,5.635A5.379,5.379,0,0,0,5.5,104.09,6.25,6.25,0,0,1,5.3,102.5a6.433,6.433,0,0,1,1.618-4.229,7.225,7.225,0,0,1,2.526-1.839,9.033,9.033,0,0,1,8.175-7.3,10.066,10.066,0,0,1,1.015-.052,9.654,9.654,0,0,1,5.857,1.927q.212-.01.424-.01a8.836,8.836,0,0,1,2.149.265A8.142,8.142,0,0,0,19.1,85.5Z" transform="translate(0 -85.5)" fill="#fff"/>
    </g>
  </g>
  <g id="Group_4" data-name="Group 4" transform="translate(7.126 4.45)">
    <g id="Group_3" data-name="Group 3">
      <path id="Path_3" data-name="Path 3" d="M130.673,178.816a6.2,6.2,0,0,0-7.243-5.149,7.227,7.227,0,0,0-12.386,5.06q0,.061,0,.122a5.162,5.162,0,0,0,1.117,10.2h17.55a5.162,5.162,0,0,0,.961-10.234Z" transform="translate(-107 -171.5)" fill="#fff"/>
    </g>
  </g>
</svg>
