<svg xmlns="http://www.w3.org/2000/svg" width="25" height="25" viewBox="0 0 25 25">
  <path id="search_icon" data-name="search icon" d="M20.857,1166.067l7.143,7.1-2.143,2.131-7.143-7.1v-1.136l-.429-.426a9.119,9.119,0,0,1-6,2.131,8.652,8.652,0,0,1-6.571-2.7A9.341,9.341,0,0,1,3,1159.533,8.554,8.554,0,0,1,5.714,1153a9.449,9.449,0,0,1,6.571-2.7,8.869,8.869,0,0,1,6.571,2.7,9.341,9.341,0,0,1,2.714,6.534,9.005,9.005,0,0,1-2.143,5.966l.429.426h1ZM7.714,1164.22a6.052,6.052,0,0,0,4.571,1.847,6.272,6.272,0,0,0,4.571-1.847,6.491,6.491,0,0,0,0-9.091,6.052,6.052,0,0,0-4.571-1.847,6.271,6.271,0,0,0-4.571,1.847,5.982,5.982,0,0,0-1.857,4.545A6.552,6.552,0,0,0,7.714,1164.22Z" transform="translate(-3 -1150.3)" fill="rgba(28,28,28,0.5)"/>
</svg>
