<svg xmlns="http://www.w3.org/2000/svg" width="43" height="35" viewBox="0 0 43 35">
  <g id="twitter-logo-silhouette" transform="translate(-0.001 -57.441)">
    <g id="Group_11" data-name="Group 11" transform="translate(0.001 57.441)">
      <path id="Path_6" data-name="Path 6" d="M43,61.582a17.587,17.587,0,0,1-5.065,1.392,8.873,8.873,0,0,0,3.877-4.887,17.761,17.761,0,0,1-5.605,2.146,8.821,8.821,0,0,0-15.259,6.045,8.881,8.881,0,0,0,.228,2.014A25.027,25.027,0,0,1,3,59.056a8.861,8.861,0,0,0,2.73,11.8,8.808,8.808,0,0,1-4-1.109v.11a8.843,8.843,0,0,0,7.075,8.667,8.918,8.918,0,0,1-2.324.31,8.45,8.45,0,0,1-1.661-.164,8.828,8.828,0,0,0,8.238,6.139A17.675,17.675,0,0,1,2.1,88.585,18.707,18.707,0,0,1,0,88.464a24.9,24.9,0,0,0,13.521,3.977c16.227,0,25.1-13.468,25.1-25.148l-.03-1.144A17.635,17.635,0,0,0,43,61.582Z" transform="translate(-0.001 -57.441)" fill="#fff"/>
    </g>
  </g>
</svg>
