<svg xmlns="http://www.w3.org/2000/svg" width="30.727" height="26" viewBox="0 0 30.727 26">
  <g id="weatherIcon" transform="translate(0 -8)">
    <path id="Path_15" data-name="Path 15" d="M2.806,14.6c2.983-2.636,5.339-4.72,11.731-1a15.311,15.311,0,0,0,7.61,2.459c3.61,0,5.949-2.067,7.973-3.856a1.857,1.857,0,0,0,.207-2.528,1.65,1.65,0,0,0-2.405-.218c-2.982,2.637-5.338,4.72-11.732,1-8.446-4.91-12.4-1.412-15.581,1.4A1.858,1.858,0,0,0,.4,14.384,1.65,1.65,0,0,0,2.806,14.6Zm25.115,3.826c-2.982,2.636-5.338,4.72-11.732,1-8.446-4.911-12.4-1.413-15.581,1.4A1.857,1.857,0,0,0,.4,23.354a1.65,1.65,0,0,0,2.405.219c2.983-2.636,5.339-4.72,11.731-1a15.317,15.317,0,0,0,7.61,2.459c3.61,0,5.949-2.067,7.973-3.856a1.858,1.858,0,0,0,.207-2.528A1.649,1.649,0,0,0,27.921,18.427Zm0,8.97c-2.982,2.637-5.338,4.72-11.732,1C7.743,23.49,3.787,26.988.608,29.8A1.859,1.859,0,0,0,.4,32.326a1.651,1.651,0,0,0,2.405.218c2.983-2.637,5.338-4.719,11.731-1A15.31,15.31,0,0,0,22.147,34c3.61,0,5.949-2.067,7.973-3.856a1.858,1.858,0,0,0,.207-2.528A1.651,1.651,0,0,0,27.921,27.4Z" transform="translate(0 0)" fill="#fff"/>
  </g>
</svg>
